<?xml version="1.0" encoding="utf-8"?>
<svg version="1.1" id="Lager_1" xmlns="http://www.w3.org/2000/svg" xmlns:xlink="http://www.w3.org/1999/xlink" x="0px" y="0px"
	 viewBox="0 0 40.4 37.4" style="enable-background:new 0 0 40.4 37.4;" xml:space="preserve">
<style type="text/css">
	.st0{fill:none;stroke-width:2.5512;stroke-linecap:round;stroke-linejoin:round;stroke-miterlimit:10;}
</style>
<g>
	<g>
		<path d="M36.7,37.4h-33c-2,0-3.7-1.7-3.7-3.7V7.1c0-2,1.7-3.7,3.7-3.7h6.5V2.3c0-1.3,1-2.3,2.3-2.3h0.7c1.3,0,2.3,1,2.3,2.3v1.1
			h9.3V2.3c0-1.3,1-2.3,2.3-2.3h0.7c1.3,0,2.3,1,2.3,2.3v1.1h6.5c2,0,3.7,1.7,3.7,3.7v26.6C40.4,35.7,38.7,37.4,36.7,37.4z
			 M1.9,13.9v19.8c0,1,0.8,1.8,1.8,1.8h33c1,0,1.8-0.8,1.8-1.8V13.9H1.9z M1.9,12.3h36.5V7.1c0-1-0.8-1.8-1.8-1.8h-8.1
			c-0.5,0-1-0.4-1-1c0-0.4,0.3-0.8,0.7-0.9V2.3c0-0.2-0.2-0.4-0.4-0.4h-0.7c-0.2,0-0.4,0.2-0.4,0.4v4.1c0,0.2,0.2,0.4,0.4,0.4h2
			c0.5,0,1,0.4,1,1s-0.4,1-1,1h-2c-1.3,0-2.3-1-2.3-2.3V5.3h-11c-0.5,0-1-0.4-1-1c0-0.4,0.3-0.8,0.7-0.9V2.3c0-0.2-0.2-0.4-0.4-0.4
			h-0.7c-0.2,0-0.4,0.2-0.4,0.4v4.1c0,0.2,0.2,0.4,0.4,0.4h2c0.5,0,1,0.4,1,1s-0.4,1-1,1h-2c-1.3,0-2.3-1-2.3-2.3V5.3H3.7
			c-1,0-1.8,0.8-1.8,1.8V12.3z"/>
	</g>
</g>
<g>
	<g>
		<line class="st0" x1="22.6" y1="19.4" x2="26.6" y2="19.4"/>
		<line class="st0" x1="30.9" y1="19.4" x2="34.9" y2="19.4"/>
		<line class="st0" x1="6" y1="24.7" x2="10" y2="24.7"/>
		<line class="st0" x1="14.3" y1="24.7" x2="18.3" y2="24.7"/>
		<line class="st0" x1="22.6" y1="24.7" x2="26.6" y2="24.7"/>
		<line class="st0" x1="30.9" y1="24.7" x2="34.9" y2="24.7"/>
		<line class="st0" x1="6" y1="30.1" x2="10" y2="30.1"/>
		<line class="st0" x1="14.3" y1="30.1" x2="18.3" y2="30.1"/>
	</g>
</g>
</svg>
